<?xml version="1.0" encoding="utf-8"?>
<!-- Generator: Adobe Illustrator 25.0.1, SVG Export Plug-In . SVG Version: 6.00 Build 0)  -->
<svg version="1.1" id="Layer_1" xmlns="http://www.w3.org/2000/svg" xmlns:xlink="http://www.w3.org/1999/xlink" x="0px" y="0px"
	 width="190px" height="190px" viewBox="0 0 190 190" enable-background="new 0 0 190 190" xml:space="preserve">
<path fill="#009639" d="M19.4,137.9c0.8,1.4,1.9,2.5,3.3,3.2l67.6,39l0,0c2.8,1.7,6.2,1.7,9,0l67.6-39c2.8-1.6,4.5-4.6,4.5-7.8V55.4
	l0,0c0-3.2-1.7-6.2-4.5-7.8l-67.6-39l0,0c-2.8-1.7-6.2-1.7-9,0l0,0l-67.6,39c-2.9,1.6-4.6,4.6-4.6,7.8l0,0v78
	C18.2,135,18.5,136.5,19.4,137.9"/>
<path fill="#FFFFFF" d="M73.1,124.1c0,4.8-3.9,8.7-8.7,8.7s-8.7-3.9-8.7-8.7l0,0V64.5c0-4.7,4.1-8.4,9.8-8.4c4.1,0,9,1.7,11.9,5.3
	l2.6,3.2l36.3,43.5V64.7l0,0c0-4.8,3.9-8.7,8.7-8.7c4.8,0,8.7,3.9,8.7,8.7l0,0v59.6c0,4.7-4.1,8.4-9.8,8.4c-4.1,0-9-1.7-11.9-5.3
	l-39-46.5V124.1L73.1,124.1z"/>
</svg>
