<?xml version="1.0" encoding="utf-8"?>
<!-- Generator: Adobe Illustrator 25.0.1, SVG Export Plug-In . SVG Version: 6.00 Build 0)  -->
<svg version="1.1" id="Layer_1" xmlns="http://www.w3.org/2000/svg" xmlns:xlink="http://www.w3.org/1999/xlink" x="0px" y="0px"
	 width="16px" height="16px" viewBox="0 0 16 16" enable-background="new 0 0 16 16" xml:space="preserve">
<path fill="#009639" d="M2.6,11c0.1,0.1,0.1,0.2,0.2,0.2l4.8,2.7l0,0c0.2,0.1,0.4,0.1,0.6,0l4.8-2.7c0.2-0.1,0.3-0.3,0.3-0.5V5.2
	l0,0c0-0.2-0.1-0.4-0.3-0.5L8.2,1.9l0,0C8,1.8,7.8,1.8,7.6,1.9l0,0L2.9,4.6C2.7,4.7,2.5,5,2.5,5.2l0,0v5.5C2.5,10.8,2.6,10.9,2.6,11
	"/>
<path fill="#FFFFFF" d="M6.4,10c0,0.3-0.3,0.6-0.6,0.6S5.2,10.4,5.2,10l0,0V5.8c0-0.3,0.3-0.6,0.7-0.6c0.3,0,0.6,0.1,0.8,0.4
	l0.2,0.2l2.6,3.1v-3l0,0c0-0.3,0.3-0.6,0.6-0.6s0.6,0.3,0.6,0.6l0,0V10c0,0.3-0.3,0.6-0.7,0.6c-0.3,0-0.6-0.1-0.8-0.4L6.4,7V10
	L6.4,10z"/>
<rect x="7.4" y="0.4" transform="matrix(-0.7071 -0.7071 0.7071 -0.7071 8.1927 18.9892)" fill="#E90000" width="1" height="14.8" fill-opacity="0.6"/>
<circle fill="none" stroke="#E90000" stroke-opacity="0.6" cx="8" cy="7.9" r="7"/>
</svg>
