<?xml version="1.0" encoding="utf-8"?>
<!-- Generator: Adobe Illustrator 25.0.1, SVG Export Plug-In . SVG Version: 6.00 Build 0)  -->
<svg version="1.1" id="Layer_1" xmlns="http://www.w3.org/2000/svg" xmlns:xlink="http://www.w3.org/1999/xlink" x="0px" y="0px"
	 width="16px" height="16px" viewBox="0 0 16 16" enable-background="new 0 0 16 16" xml:space="preserve">
<path fill="#009639" d="M1.5,11.8c0.1,0.1,0.2,0.2,0.3,0.3l5.8,3.4l0,0c0.2,0.1,0.5,0.1,0.8,0l5.8-3.4c0.2-0.1,0.4-0.4,0.4-0.7V4.7
	l0,0c0-0.3-0.1-0.5-0.4-0.7L8.4,0.7l0,0c-0.2-0.1-0.5-0.1-0.8,0l0,0L1.8,4C1.6,4.2,1.4,4.4,1.4,4.7l0,0v6.7
	C1.4,11.5,1.5,11.7,1.5,11.8"/>
<path fill="#FFFFFF" d="M6.2,10.6c0,0.4-0.3,0.7-0.7,0.7c-0.4,0-0.7-0.3-0.7-0.7l0,0V5.5c0-0.4,0.4-0.7,0.8-0.7c0.4,0,0.8,0.1,1,0.5
	l0.2,0.3l3.1,3.7V5.5l0,0c0-0.4,0.3-0.7,0.7-0.7s0.7,0.3,0.7,0.7l0,0v5.1c0,0.4-0.4,0.7-0.8,0.7c-0.4,0-0.8-0.1-1-0.5l-3.4-4V10.6
	L6.2,10.6z"/>
</svg>
